<?xml version="1.0" encoding="utf-8"?>
<!-- Generator: Adobe Illustrator 24.2.3, SVG Export Plug-In . SVG Version: 6.00 Build 0)  -->
<svg version="1.1" id="Calque_1" xmlns="http://www.w3.org/2000/svg" xmlns:xlink="http://www.w3.org/1999/xlink" x="0px" y="0px"
	 viewBox="0 0 42.5 45.4" style="enable-background:new 0 0 42.5 45.4;" xml:space="preserve">
<style type="text/css">
	.st0{fill:#FFFFFF;}
</style>
<g>
	<path class="st0" d="M29.7,27.2C29.7,27.3,29.7,27.3,29.7,27.2l-0.3,0.2c-0.1,0.1-0.2,0.1-0.4,0.2c-0.1,0.1-0.3,0.1-0.4,0.2
		L28.3,28c-0.1,0.1-0.2,0.1-0.3,0.2c-0.2,0.1-0.3,0.1-0.5,0.2l-0.2,0.1c-0.1,0-0.2,0.1-0.3,0.1c-0.2,0.1-0.3,0.1-0.5,0.2l-0.3,0.1
		c-0.1,0-0.2,0.1-0.3,0.1c-0.2,0-0.4,0.1-0.6,0.1L25,29.1c-0.1,0-0.2,0-0.3,0.1c-0.2,0-0.4,0.1-0.6,0.1l-0.3,0c-0.1,0-0.2,0-0.3,0
		c-0.2,0-0.5,0-0.7,0.1l-0.2,0c-0.1,0-0.2,0-0.2,0c-0.8,0.1-1.5,0.1-2.3,0c-0.1,0-0.2,0-0.2,0l-0.1,0c-0.3,0-0.5,0-0.8-0.1
		c-0.1,0-0.2,0-0.3,0l-0.3,0c-0.2,0-0.4-0.1-0.6-0.1c-0.1,0-0.2,0-0.3-0.1l-0.3-0.1c-0.2,0-0.4-0.1-0.5-0.1c-0.1,0-0.2-0.1-0.3-0.1
		l-0.3-0.1c-0.2,0-0.3-0.1-0.5-0.2c-0.1,0-0.2-0.1-0.3-0.1L15,28.3c-0.2-0.1-0.3-0.1-0.5-0.2c-0.1,0-0.2-0.1-0.3-0.2L14,27.9
		c-0.2-0.1-0.3-0.1-0.5-0.2c-0.1-0.1-0.2-0.1-0.4-0.2l-0.2-0.1c0,0-0.1,0-0.1,0C5.3,30.4,0.3,37.4,0,45.4h42.5
		C42.2,37.5,37.2,30.4,29.7,27.2z"/>
	<path class="st0" d="M7,13.9c0,4.7,2.4,9,6.4,11.6c2.3,1.5,5.1,2.3,7.9,2.3c2.8,0,5.5-0.8,7.9-2.3c4-2.6,6.4-6.9,6.4-11.6
		C35.6,6.2,29.2,0,21.3,0S7,6.2,7,13.9z"/>
</g>
</svg>
